<svg width="282" height="263" viewBox="0 0 282 263" fill="none" xmlns="http://www.w3.org/2000/svg">
<path d="M93.5769 30.8296C67.5835 48.9877 63.764 75.8221 55.3615 112.645C25.4612 146.876 17.8747 165.737 35.3396 198.235C80.118 262.04 239.152 241.854 266.592 184.508C273.32 159.617 268.831 144.696 252.144 117.038C230.013 43.3458 219.922 22.129 207.583 30.8296C197.583 37.8813 185.03 50.4125 168.756 78.6476L141.517 80.3899C121.904 48.3363 102.083 24.8872 93.5769 30.8296Z" fill="#141414"/>
<path d="M249.025 145.364L270.364 135.975" stroke="white" stroke-width="4" stroke-linecap="round"/>
<path d="M249.603 153.669L272.669 149.398" stroke="white" stroke-width="4" stroke-linecap="round"/>
<path d="M251.927 160.93L275.93 160.072" stroke="white" stroke-width="4" stroke-linecap="round"/>
<path d="M42.9043 144.389L21.5656 135" stroke="white" stroke-width="4" stroke-linecap="round"/>
<path d="M42.3271 152.695L19.2603 148.423" stroke="white" stroke-width="4" stroke-linecap="round"/>
<path d="M40.0024 159.955L15.9999 159.098" stroke="white" stroke-width="4" stroke-linecap="round"/>
<path d="M82 134C94.1 146.497 117.2 155.584 137 134" stroke="white" stroke-width="20" stroke-linecap="square"/>
<path d="M174 134C186.1 146.497 209.2 155.584 229 134" stroke="white" stroke-width="20" stroke-linecap="square"/>
<path d="M197.177 77.7164L194.604 72.8081L197.058 71.5224C200.847 69.5353 204.946 67.1239 205.629 63.6342C206.159 60.9204 204.661 57.4545 201.176 53.3331L199.387 51.2177L203.618 47.6394L205.407 49.7547C210.095 55.2996 211.948 60.1873 211.066 64.6967C209.818 71.0886 203.189 74.5624 199.63 76.4292L197.177 77.7164ZM226.139 95.3326L224.854 92.8784C222.867 89.0879 220.455 84.9902 216.965 84.3078C214.253 83.7758 210.786 85.2752 206.664 88.7602L204.549 90.5493L200.971 86.3187L203.086 84.5295C208.629 79.8397 213.512 77.984 218.028 78.8707C224.42 80.1183 227.894 86.7462 229.76 90.3071L231.046 92.7612L226.139 95.3326ZM239.647 88.9644L237.857 86.8491C233.168 81.3042 231.317 76.4165 232.199 71.9056C233.446 65.5152 240.074 62.0414 243.635 60.1747L246.089 58.889L248.662 63.7973L246.208 65.083C242.417 67.0701 238.32 69.4815 237.637 72.9696C237.107 75.685 238.605 79.1493 242.088 83.2707L243.877 85.3861L239.647 88.9644ZM227.442 57.9501C226.697 57.9501 225.964 57.8788 225.238 57.7379C218.846 56.4902 215.373 49.8608 213.506 46.3015L212.22 43.8473L217.129 41.2744L218.416 43.7286C220.403 47.5175 222.814 51.6167 226.302 52.2992C229.011 52.828 232.481 51.3333 236.604 47.8468L238.719 46.0577L242.297 50.2883L240.182 52.0775C235.525 56.0137 231.334 57.9501 227.442 57.9501Z" fill="#BE1931"/>
</svg>
